<svg version="1.1" xmlns="http://www.w3.org/2000/svg" xmlns:xlink="http://www.w3.org/1999/xlink">
        <g id="choose_resume" xmlns="http://www.w3.org/2000/svg">
            <g>
                <polygon style="fill:#EFEBDE;" points="46.5,14 32.5,0 1.5,0 1.5,58 46.5,58   "/>
                <g>
                    <path style="fill:#D5D0BB;" d="M11.5,23h25c0.552,0,1-0.447,1-1s-0.448-1-1-1h-25c-0.552,0-1,0.447-1,1S10.948,23,11.5,23z"/>
                    <path style="fill:#D5D0BB;" d="M11.5,15h10c0.552,0,1-0.447,1-1s-0.448-1-1-1h-10c-0.552,0-1,0.447-1,1S10.948,15,11.5,15z"/>
                    <path style="fill:#D5D0BB;" d="M36.5,29h-25c-0.552,0-1,0.447-1,1s0.448,1,1,1h25c0.552,0,1-0.447,1-1S37.052,29,36.5,29z"/>
                    <path style="fill:#D5D0BB;" d="M36.5,37h-25c-0.552,0-1,0.447-1,1s0.448,1,1,1h25c0.552,0,1-0.447,1-1S37.052,37,36.5,37z"/>
                    <path style="fill:#D5D0BB;" d="M36.5,45h-25c-0.552,0-1,0.447-1,1s0.448,1,1,1h25c0.552,0,1-0.447,1-1S37.052,45,36.5,45z"/>
                </g>
                <polygon style="fill:#D5D0BB;" points="32.5,0 32.5,14 46.5,14   "/>
            </g>
            <g>
                <circle style="fill:#71C386;" cx="44.5" cy="46" r="12"/>
                <path style="fill:#FFFFFF;" d="M50.5,45h-5v-5c0-0.552-0.448-1-1-1s-1,0.448-1,1v5h-5c-0.552,0-1,0.448-1,1s0.448,1,1,1h5v5    c0,0.552,0.448,1,1,1s1-0.448,1-1v-5h5c0.552,0,1-0.448,1-1S51.052,45,50.5,45z"/>
            </g>
        </g>




        <g id="edit_resume">
            <g>
                <polygon style="fill:#EFEBDE;" points="46.072,14 32.072,0 1.072,0 1.072,58 46.072,58   "/>
                <g>
                    <path style="fill:#D5D0BB;" d="M11.072,23h25c0.552,0,1-0.447,1-1s-0.448-1-1-1h-25c-0.552,0-1,0.447-1,1S10.52,23,11.072,23z"/>
                    <path style="fill:#D5D0BB;" d="M11.072,15h10c0.552,0,1-0.447,1-1s-0.448-1-1-1h-10c-0.552,0-1,0.447-1,1S10.52,15,11.072,15z"/>
                    <path style="fill:#D5D0BB;" d="M36.072,29h-25c-0.552,0-1,0.447-1,1s0.448,1,1,1h25c0.552,0,1-0.447,1-1S36.624,29,36.072,29z"/>
                    <path style="fill:#D5D0BB;" d="M36.072,37h-25c-0.552,0-1,0.447-1,1s0.448,1,1,1h25c0.552,0,1-0.447,1-1S36.624,37,36.072,37z"/>
                    <path style="fill:#D5D0BB;" d="M36.072,45h-25c-0.552,0-1,0.447-1,1s0.448,1,1,1h25c0.552,0,1-0.447,1-1S36.624,45,36.072,45z"/>
                </g>
                <polygon style="fill:#D5D0BB;" points="32.072,0 32.072,14 46.072,14   "/>
            </g>
            <g>
                <polygon style="fill:#EDDCC7;" points="36.201,49.214 36.194,49.222 34.205,56.511 38.852,51.865   "/>
                <path style="fill:#D75A4A;" d="M55.451,35.266l-1.247-1.247c-0.775-0.775-2.032-0.775-2.807,0L47.815,37.6l2.651,2.651    L55.451,35.266z"/>
                
                    <rect x="41.459" y="36.521" transform="matrix(0.7071 0.7071 -0.7071 0.7071 44.3228 -17.5395)" style="fill:#F29C21;" width="3.749" height="16.424"/>
                <polygon style="fill:#D6C4B1;" points="41.85,54.879 41.858,54.871 38.852,51.865 34.205,56.511 34.072,57   "/>
                <path style="fill:#A34740;" d="M53.472,43.257l3.582-3.582c0.775-0.775,0.775-2.032,0-2.807l-1.602-1.602l-4.985,4.985    L53.472,43.257z"/>
                
                    <rect x="44.036" y="39.349" transform="matrix(-0.7071 -0.7071 0.7071 -0.7071 45.1717 113.8333)" style="fill:#E18C25;" width="4.251" height="16.424"/>
                <path style="fill:#5E5E5E;" d="M33.365,58.707c-0.256,0-0.512-0.098-0.707-0.293c-0.391-0.391-0.391-1.023,0-1.414l2.207-2.207    c0.391-0.391,1.023-0.391,1.414,0s0.391,1.023,0,1.414l-2.207,2.207C33.877,58.609,33.621,58.707,33.365,58.707z"/>
            </g>
        </g>

        <g id="style_resume">
            <g>
                <polygon style="fill:#EFEBDE;" points="45.482,14 31.482,0 0.482,0 0.482,58 45.482,58   "/>
                <g>
                    <path style="fill:#D5D0BB;" d="M10.482,23h25c0.552,0,1-0.447,1-1s-0.448-1-1-1h-25c-0.552,0-1,0.447-1,1S9.929,23,10.482,23z"/>
                    <path style="fill:#D5D0BB;" d="M10.482,15h10c0.552,0,1-0.447,1-1s-0.448-1-1-1h-10c-0.552,0-1,0.447-1,1S9.929,15,10.482,15z"/>
                    <path style="fill:#D5D0BB;" d="M35.482,29h-25c-0.552,0-1,0.447-1,1s0.448,1,1,1h25c0.552,0,1-0.447,1-1S36.034,29,35.482,29z"/>
                    <path style="fill:#D5D0BB;" d="M35.482,37h-25c-0.552,0-1,0.447-1,1s0.448,1,1,1h25c0.552,0,1-0.447,1-1S36.034,37,35.482,37z"/>
                    <path style="fill:#D5D0BB;" d="M35.482,45h-25c-0.552,0-1,0.447-1,1s0.448,1,1,1h25c0.552,0,1-0.447,1-1S36.034,45,35.482,45z"/>
                </g>
                <polygon style="fill:#D5D0BB;" points="31.482,0 31.482,14 45.482,14   "/>
            </g>
            <g>
                <circle style="fill:#D0E8F9;" cx="44.277" cy="43.796" r="9.796"/>
                <path style="fill:#EAF6FD;" d="M47.83,34.674L35.156,47.348c0.706,1.81,1.93,3.357,3.495,4.459L52.289,38.17    C51.187,36.604,49.64,35.38,47.83,34.674z"/>
                <path style="fill:#8697CB;" d="M58.223,57.291l-5.97-6.244c1.746-1.919,2.82-4.458,2.82-7.251C55.073,37.843,50.231,33,44.277,33    s-10.796,4.843-10.796,10.796s4.843,10.796,10.796,10.796c2.442,0,4.689-0.824,6.499-2.196l6.001,6.276    c0.196,0.206,0.459,0.309,0.723,0.309c0.249,0,0.497-0.092,0.691-0.277C58.59,58.323,58.605,57.689,58.223,57.291z M35.482,43.796    c0-4.85,3.946-8.796,8.796-8.796s8.796,3.946,8.796,8.796s-3.946,8.796-8.796,8.796S35.482,48.646,35.482,43.796z"/>
            </g>
        </g>


        <g id="download_resume">
            <g>
                <polygon style="fill:#EFEBDE;" points="46.5,14 32.5,0 1.5,0 1.5,58 46.5,58   "/>
                <g>
                    <path style="fill:#D5D0BB;" d="M11.5,23h25c0.552,0,1-0.447,1-1s-0.448-1-1-1h-25c-0.552,0-1,0.447-1,1S10.948,23,11.5,23z"/>
                    <path style="fill:#D5D0BB;" d="M11.5,15h10c0.552,0,1-0.447,1-1s-0.448-1-1-1h-10c-0.552,0-1,0.447-1,1S10.948,15,11.5,15z"/>
                    <path style="fill:#D5D0BB;" d="M36.5,29h-25c-0.552,0-1,0.447-1,1s0.448,1,1,1h25c0.552,0,1-0.447,1-1S37.052,29,36.5,29z"/>
                    <path style="fill:#D5D0BB;" d="M36.5,37h-25c-0.552,0-1,0.447-1,1s0.448,1,1,1h25c0.552,0,1-0.447,1-1S37.052,37,36.5,37z"/>
                    <path style="fill:#D5D0BB;" d="M36.5,45h-25c-0.552,0-1,0.447-1,1s0.448,1,1,1h25c0.552,0,1-0.447,1-1S37.052,45,36.5,45z"/>
                </g>
                <polygon style="fill:#D5D0BB;" points="32.5,0 32.5,14 46.5,14   "/>
            </g>
            <g>
                <rect x="34.5" y="36" style="fill:#21AE5E;" width="22" height="22"/>
                <rect x="44.5" y="37.586" style="fill:#FFFFFF;" width="2" height="16"/>
                <polygon style="fill:#FFFFFF;" points="45.5,55 38.5,48.293 39.976,46.879 45.5,52.172 51.024,46.879 52.5,48.293   "/>
            </g>
        </g>
</svg>
